HIERARCHY
ROOT Hips
{
    OFFSET 0.0 0.0 0.0
    CHANNELS 6 Xposition Yposition Zposition Zrotation Xrotation Yrotation
    JOINT Spine
    {
        OFFSET 0.0 5.0 0.0
        CHANNELS 3 Zrotation Xrotation Yrotation
        JOINT Chest
        {
            OFFSET 0.0 5.0 0.0
            CHANNELS 3 Zrotation Xrotation Yrotation
            JOINT Neck
            {
                OFFSET 0.0 8.0 0.0
                CHANNELS 3 Zrotation Xrotation Yrotation
                JOINT Head
                {
                    OFFSET 0.0 5.0 0.0
                    CHANNELS 3 Zrotation Xrotation Yrotation
                    End Site
                    {
                        OFFSET 0.0 3.0 0.0
                    }
                }
            }
            JOINT LeftShoulder
            {
                OFFSET -5.0 0.0 0.0
                CHANNELS 3 Zrotation Xrotation Yrotation
                JOINT LeftArm
                {
                    OFFSET 0.0 -10.0 0.0
                    CHANNELS 3 Zrotation Xrotation Yrotation
                    JOINT LeftForeArm
                    {
                        OFFSET 0.0 -10.0 0.0
                        CHANNELS 3 Zrotation Xrotation Yrotation
                        End Site
                        {
                            OFFSET 0.0 -3.0 0.0
                        }
                    }
                }
            }
        }
    }
}

MOTION
Frames: 29
Frame Time: 0.033333
970.000000 442.938926 119.021188 0.000000 0.000000 0.000000 0.000000 0.000000 0.000000 29.678605 -23.695781 0.000000 180.000000 17.060299 0.000000 29.744881 -1.580542 -0.000000 150.255119 1.210214 30.000000 19.983107 12.221484 0.000000 18.000000 -0.516878 0.000000
1354.522934 467.411410 124.496315 0.000000 0.000000 0.000000 0.000000 0.000000 0.000000 150.622570 1.392514 4.973798 -29.377430 3.740509 4.973798 140.176400 -5.094531 3.759997 -12.221629 1.888605 29.763441 132.794256 1.110161 -3.759997 -2.626015 0.018197 0.313953
969.997807 442.887864 111.683849 0.000000 0.000000 0.000000 0.000000 0.000000 0.000000 31.061399 23.036292 9.635073 180.000000 -17.603699 9.635073 30.285790 8.325500 7.460697 149.714210 -3.753510 29.057495 19.151579 -6.047676 -7.460697 18.000000 0.625701 0.626666
1246.736984 514.278152 100.684550 0.000000 0.000000 0.000000 0.000000 0.000000 0.000000 143.557092 6.533058 13.690942 -36.442908 2.021337 13.690942 133.761037 -5.144092 11.043737 -156.950665 -6.312784 27.893295 0.000000 0.000000 0.000000 1.928484 0.423945 0.936907
1245.221100 458.637464 107.055432 0.000000 0.000000 0.000000 0.000000 0.000000 0.000000 160.701064 -13.838564 16.886559 -19.298936 -17.351305 16.886559 140.193827 2.675748 14.452610 -157.554825 -5.637032 26.289200 29.500467 5.111551 -14.452610 -15.049953 -0.511155 1.243449
1257.365570 418.514181 107.655478 0.000000 0.000000 0.000000 0.000000 0.000000 0.000000 -143.710676 -12.270760 19.021130 36.289324 15.664145 19.021130 163.220413 -6.389234 17.633558 11.688054 1.210170 24.270510 152.038385 1.576766 -17.633558 -2.339948 -0.054695 1.545085
1275.099564 408.163741 95.470465 0.000000 0.000000 0.000000 0.000000 0.000000 0.000000 -132.929531 -0.918305 19.960535 47.070469 19.848578 19.960535 173.491912 -3.342275 20.536413 -160.709681 -4.687639 21.869059 33.138793 5.516631 -20.536413 -14.686121 -0.551663 1.840623
1290.611115 384.880857 91.113541 0.000000 0.000000 0.000000 0.000000 0.000000 0.000000 -132.705235 -2.617943 19.645745 47.294765 1.843850 19.645745 -173.778854 -5.332164 23.115397 20.496835 -2.252200 19.122720 -161.220290 -3.936549 -23.115397 1.723235 0.337767 2.128896
1302.817154 380.305352 94.612578 0.000000 0.000000 0.000000 0.000000 0.000000 0.000000 -131.493915 -0.271820 18.096541 48.506085 -0.241364 18.096541 -165.393697 -4.022962 25.329838 23.154815 -0.214459 16.074804 -178.200316 -0.213844 -25.329838 0.138141 -0.063907 2.408768
1304.997711 379.563582 98.183874 0.000000 0.000000 0.000000 0.000000 0.000000 0.000000 -126.727972 3.496201 15.410265 53.272028 4.868569 15.410265 -160.219593 -5.134744 27.144812 28.448880 1.372217 12.773379 -174.368770 -0.759414 -27.144812 0.079526 0.081766 2.679134
1311.668472 386.890390 98.879661 0.000000 0.000000 0.000000 0.000000 0.000000 0.000000 -122.308728 -4.781356 11.755705 57.691272 -5.328374 11.755705 -158.801130 -2.812560 28.531695 150.942637 -7.737127 9.270510 -154.878332 -3.297687 -28.531695 2.695409 0.458616 2.938926
1305.131836 395.180186 75.704906 0.000000 0.000000 0.000000 0.000000 0.000000 0.000000 -125.112810 13.508935 7.362491 54.887190 -6.680899 7.362491 -146.487292 -1.536097 29.468618 -175.167369 -6.503567 5.621439 -159.224034 -3.920593 -29.468618 1.782042 0.597398 3.187120
1296.320457 392.734526 93.477106 0.000000 0.000000 0.000000 0.000000 0.000000 0.000000 -131.035750 4.772520 2.506665 48.964250 -11.210443 2.506665 -128.969563 0.595125 29.940802 38.856147 -8.347127 1.883716 -134.776850 3.185715 -29.940802 3.458429 -0.087607 3.422736
1306.963577 386.612041 82.680195 0.000000 0.000000 0.000000 0.000000 0.000000 0.000000 -124.469622 -15.063702 -2.506665 55.530378 4.281579 -2.506665 -109.994856 -1.473515 29.940802 37.691309 5.428656 -1.883716 -118.274788 1.672124 -29.940802 5.098336 -0.241802 3.644843
969.892723 442.572198 86.348371 0.000000 0.000000 0.000000 0.000000 0.000000 0.000000 41.287575 32.602939 -7.362491 180.000000 9.435172 -7.362491 30.974696 -10.128507 29.468618 149.025304 -11.571887 -5.621439 15.072869 2.125118 -29.468618 18.000000 -0.015937 3.852566
969.876883 442.545207 44.210630 0.000000 0.000000 0.000000 0.000000 0.000000 0.000000 42.241956 37.892681 -11.755705 180.000000 -5.084747 -11.755705 30.826133 -0.806419 28.531695 149.173867 -8.945641 -9.270510 14.823070 -0.083703 -28.531695 18.000000 0.186884 4.045085
969.859960 442.518116 68.556227 0.000000 0.000000 0.000000 0.000000 0.000000 0.000000 43.199779 -18.694128 -15.410265 180.000000 18.358938 -15.410265 30.649504 -5.219969 27.144812 149.350496 1.816031 -12.773379 14.587557 -3.612009 -27.144812 18.000000 0.304302 4.221640
969.841956 442.490926 60.464381 0.000000 0.000000 0.000000 0.000000 0.000000 0.000000 44.157210 -3.180759 -18.096541 180.000000 8.703600 -18.096541 30.446417 -12.488178 25.329838 149.553583 10.351506 -16.074804 14.366154 -3.498279 -25.329838 18.000000 0.165139 4.381533
969.822873 442.463637 33.755994 0.000000 0.000000 0.000000 0.000000 0.000000 0.000000 45.110117 6.860567 -19.645745 180.000000 4.958230 -19.645745 30.218633 5.864726 23.115397 149.781367 -1.913823 -19.122720 14.158653 1.877966 -23.115397 18.000000 0.218922 4.524135
969.802712 442.436251 50.872885 0.000000 0.000000 0.000000 0.000000 0.000000 0.000000 46.054109 -11.586748 -19.960535 180.000000 -2.169587 -19.960535 29.968037 -2.675885 20.536413 150.031963 -4.021271 -21.869059 13.964823 2.994874 -20.536413 18.000000 0.490890 4.648882
1187.040939 541.658249 60.746909 0.000000 0.000000 0.000000 0.000000 0.000000 0.000000 82.806623 0.741104 -19.021130 -97.193377 -28.479244 -19.021130 45.395981 7.180765 17.633558 -156.144455 -2.984526 -24.270510 0.000000 0.000000 0.000000 0.000000 0.000000 0.000000
1182.242889 522.024286 54.909350 0.000000 0.000000 0.000000 0.000000 0.000000 0.000000 -105.721938 -7.894130 -16.886559 74.278062 -8.685216 -16.886559 -155.708006 -2.000288 14.452610 -157.302521 -2.363718 -26.289200 0.000000 0.000000 0.000000 2.684983 0.217327 4.842916
1180.914459 527.065626 60.299064 0.000000 0.000000 0.000000 0.000000 0.000000 0.000000 88.055617 2.037769 -13.690942 -91.944383 -1.293641 -13.690942 -158.862018 -2.359437 11.043737 -151.747289 -2.390793 -27.893295 0.000000 0.000000 0.000000 0.000000 0.000000 0.000000
1236.800194 541.387432 51.577358 0.000000 0.000000 0.000000 0.000000 0.000000 0.000000 -85.588400 18.410863 -9.635073 94.411600 -8.966359 -9.635073 -159.297106 -5.154404 7.460697 -157.915391 -3.011445 -29.057495 26.607362 1.699905 -7.460697 14.926890 0.330420 4.960574
1161.066513 575.006626 62.797424 0.000000 0.000000 0.000000 0.000000 0.000000 0.000000 -81.021168 11.144331 -4.973798 98.978832 2.295776 -4.973798 -102.851701 -5.042033 3.759997 -157.041007 -2.551600 -29.763441 21.429890 0.740739 -3.759997 10.859432 1.397623 4.990134
1255.636253 512.645942 36.716053 0.000000 0.000000 0.000000 0.000000 0.000000 0.000000 77.832564 8.914225 -0.000000 -102.167436 -12.742675 -0.000000 -158.264834 -1.855493 0.000000 -130.745502 -7.121326 -30.000000 -157.699225 -2.263495 -0.000000 0.000000 0.000000 0.000000
1265.118484 521.473864 38.698538 0.000000 0.000000 0.000000 0.000000 0.000000 0.000000 64.078276 0.781903 4.973798 -115.921724 5.190647 4.973798 41.397952 -5.497380 -3.759997 -139.329851 1.774333 -29.763441 20.223252 -1.042256 3.759997 -16.047574 -0.038390 4.990134
1228.099480 522.138258 79.950500 0.000000 0.000000 0.000000 0.000000 0.000000 0.000000 71.050901 -3.436889 9.635073 -108.949099 -4.140132 9.635073 150.099970 0.625917 -7.460697 -139.894702 -0.312937 -29.057495 -156.275691 -3.588618 7.460697 0.000000 0.000000 0.000000
1240.357246 528.695873 55.627125 0.000000 0.000000 0.000000 0.000000 0.000000 0.000000 65.413351 -1.597198 13.690942 -114.586649 -6.981146 13.690942 147.242328 -1.508765 -11.043737 -154.470720 -2.915132 -27.893295 25.557225 3.771952 11.043737 -15.444278 -0.377195 4.911436
